<svg width="226" height="373" viewBox="0 0 226 373" fill="none" xmlns="http://www.w3.org/2000/svg">
<path d="M65.9179 243.653V225.586C65.9179 209.961 69.2545 196.371 75.9277 184.815C82.6009 173.259 94.8079 160.971 112.549 147.95C129.639 135.743 140.869 125.814 146.24 118.165C151.774 110.515 154.541 101.97 154.541 92.5294C154.541 81.9499 150.635 73.8932 142.822 68.3593C135.01 62.8255 124.105 60.0585 110.108 60.0585C85.6933 60.0585 57.8613 68.0338 26.6113 83.9843L0 30.5175C36.2956 10.1725 74.7884 0 115.479 0C149.007 0 175.619 8.05664 195.313 24.1699C215.169 40.2832 225.098 61.7675 225.098 88.623C225.098 106.527 221.029 121.989 212.891 135.01C204.753 148.031 189.29 162.679 166.504 178.956C150.879 190.512 140.951 199.301 136.719 205.323C132.65 211.345 130.615 219.239 130.615 229.004V243.653H65.9179ZM58.1054 327.149C58.1054 313.477 61.7676 303.142 69.0918 296.143C76.416 289.144 87.0768 285.645 101.074 285.645C114.583 285.645 125 289.226 132.324 296.387C139.811 303.549 143.555 313.803 143.555 327.149C143.555 340.007 139.811 350.179 132.324 357.666C124.837 364.991 114.421 368.653 101.074 368.653C87.4023 368.653 76.8229 365.072 69.3359 357.911C61.8489 350.586 58.1054 340.332 58.1054 327.149Z" fill="white"/>
<circle cx="101.42" cy="327.061" r="45" fill="#00FD5F"/>
</svg>
