<svg width="280" height="174" viewBox="0 0 280 174" fill="none" xmlns="http://www.w3.org/2000/svg">
<path d="M72.5309 105.652H0V96.0412L56.0042 11.0566H1.73212V0H70.9435V9.61126L14.9393 94.5234H72.5309V105.652ZM139.866 105.652L137.485 94.3792H136.907C132.962 99.3409 129.017 102.714 125.071 104.496C121.174 106.23 116.291 107.098 110.421 107.098C102.578 107.098 96.4199 105.074 91.9451 101.027C87.5184 96.9803 85.3057 91.2231 85.3057 83.7557C85.3057 67.7614 98.0798 59.3779 123.628 58.6076L137.051 58.1739V53.2596C137.051 47.0451 135.704 42.4682 133.01 39.5296C130.364 36.5422 126.106 35.0489 120.236 35.0489C113.644 35.0489 106.187 37.0721 97.8632 41.1191L94.1821 31.9417C98.0798 29.8216 102.337 28.1595 106.956 26.9548C111.623 25.7508 116.291 25.1485 120.958 25.1485C130.388 25.1485 137.364 27.2441 141.887 31.4355C146.458 35.6269 148.743 42.3475 148.743 51.5975V105.652H139.866ZM112.803 97.1971C120.26 97.1971 126.106 95.1495 130.34 91.0543C134.622 86.9599 136.763 81.2264 136.763 73.8553V66.7009L124.782 67.2071C115.256 67.5445 108.376 69.0379 104.142 71.6878C99.9561 74.2889 97.8632 78.3596 97.8632 83.9C97.8632 88.2364 99.1624 91.5361 101.76 93.8005C104.407 96.0649 108.087 97.1971 112.803 97.1971ZM210.304 107.098C205.156 107.098 200.441 106.158 196.159 104.28C191.925 102.352 188.365 99.4134 185.478 95.4625H184.611C185.189 100.088 185.478 104.472 185.478 108.615V141.207H173.497V26.4494H183.24L184.9 37.2889H185.478C188.557 32.9532 192.141 29.8216 196.231 27.8946C200.321 25.9676 205.012 25.0042 210.304 25.0042C220.793 25.0042 228.876 28.5932 234.554 35.7712C240.279 42.9499 243.142 53.0191 243.142 65.9787C243.142 78.9864 240.231 89.1037 234.409 96.3298C228.636 103.509 220.6 107.098 210.304 107.098ZM208.572 35.1932C200.489 35.1932 194.644 37.4332 191.035 41.9139C187.426 46.3946 185.574 53.5245 185.478 63.3043V65.9787C185.478 77.1076 187.33 85.081 191.035 89.8984C194.74 94.6677 200.681 97.0528 208.861 97.0528C215.693 97.0528 221.033 94.2822 224.883 88.7418C228.78 83.2014 230.729 75.5654 230.729 65.8336C230.729 55.9576 228.78 48.3941 224.883 43.1423C221.033 37.8432 215.597 35.1932 208.572 35.1932ZM274.969 76.5296H267.391L263.711 0H278.65L274.969 76.5296ZM262.411 97.9918C262.411 91.4399 265.298 88.1639 271.072 88.1639C273.863 88.1639 276.004 89.0075 277.495 90.6932C279.034 92.3797 279.804 94.8128 279.804 97.9918C279.804 101.075 279.034 103.484 277.495 105.219C275.956 106.905 273.815 107.748 271.072 107.748C268.57 107.748 266.501 107.001 264.865 105.508C263.23 103.966 262.411 101.461 262.411 97.9918Z" fill="white"/>
<path d="M213.805 166H66V173.4H213.805V166Z" fill="#25D366"/>
</svg>
