<svg width="251" height="240" viewBox="0 0 251 240" fill="none" xmlns="http://www.w3.org/2000/svg">
<path d="M66.3008 130.44H3.93506V120.554L47.8773 55.5787H5.12753V43.3698H65.1083V53.3751L20.9873 118.231H66.3008V130.44ZM121.512 130.44L118.709 121.269H118.233C115.053 125.278 111.853 128.019 108.633 129.487C105.413 130.916 101.28 131.631 96.2313 131.631C89.7528 131.631 84.6846 129.885 81.0277 126.391C77.4106 122.897 75.602 117.954 75.602 111.561C75.602 104.771 78.1261 99.6495 83.1741 96.1954C88.2222 92.7413 95.9133 90.8558 106.248 90.5382L117.637 90.1808V86.6665C117.637 82.4582 116.643 79.3215 114.655 77.2569C112.707 75.1527 109.667 74.1005 105.533 74.1005C102.154 74.1005 98.9143 74.5968 95.8141 75.5894C92.7139 76.582 89.7324 77.7533 86.8705 79.1032L82.3395 69.0978C85.9166 67.2318 89.8325 65.8222 94.0851 64.8693C98.3385 63.8768 102.353 63.3805 106.129 63.3805C114.516 63.3805 120.836 65.2069 125.09 68.8596C129.382 72.5124 131.528 78.2495 131.528 86.071V130.44H121.512ZM100.644 120.911C105.732 120.911 109.806 119.502 112.867 116.683C115.967 113.824 117.517 109.834 117.517 104.712V98.9948L109.051 99.3522C102.452 99.5902 97.6423 100.702 94.6218 102.687C91.6404 104.633 90.1496 107.63 90.1496 111.681C90.1496 114.618 91.0247 116.902 92.7733 118.529C94.5226 120.117 97.1454 120.911 100.644 120.911ZM184.533 131.631C176.186 131.631 169.707 128.634 165.096 122.638H164.262C164.818 128.197 165.096 131.572 165.096 132.763V159.742H151.085V64.5716H162.413C162.731 65.8024 163.387 68.7405 164.381 73.3858H165.096C169.469 66.7156 176.027 63.3805 184.772 63.3805C193 63.3805 199.399 66.3583 203.97 72.3138C208.582 78.2694 210.887 86.6267 210.887 97.3871C210.887 108.147 208.542 116.544 203.851 122.579C199.201 128.614 192.761 131.631 184.533 131.631ZM181.135 74.8152C175.57 74.8152 171.496 76.443 168.912 79.6988C166.368 82.9545 165.096 88.1555 165.096 95.3026V97.3871C165.096 105.407 166.368 111.223 168.912 114.836C171.456 118.41 175.61 120.196 181.374 120.196C186.222 120.196 189.959 118.211 192.582 114.241C195.206 110.271 196.518 104.613 196.518 97.2677C196.518 89.8826 195.206 84.3043 192.582 80.5325C189.998 76.7209 186.183 74.8152 181.135 74.8152ZM239.267 103.997H228.893L225.792 43.3698H242.308L239.267 103.997ZM225.077 122.996C225.077 120.057 225.852 117.834 227.403 116.326C228.953 114.777 231.159 114.003 234.021 114.003C236.843 114.003 239.009 114.797 240.52 116.385C242.03 117.973 242.785 120.177 242.785 122.996C242.785 125.815 242.01 128.058 240.46 129.725C238.949 131.353 236.803 132.167 234.021 132.167C231.198 132.167 228.992 131.374 227.403 129.785C225.852 128.197 225.077 125.934 225.077 122.996Z" fill="white" fill-opacity="0.9"/>
<path d="M212.841 181.044H37.3108V183.044H212.841V181.044Z" fill="#25D366"/>
</svg>
